<mxfile host="Electron" agent="Mozilla/5.0 (Windows NT 10.0; Win64; x64) AppleWebKit/537.36 (KHTML, like Gecko) draw.io/24.7.17 Chrome/128.0.6613.36 Electron/32.0.1 Safari/537.36" version="24.7.17">
  <diagram name="Страница — 1" id="__GIQROFcUUn1-cz26Tw">
    <mxGraphModel dx="1221" dy="717" grid="1" gridSize="10" guides="1" tooltips="1" connect="1" arrows="1" fold="1" page="1" pageScale="1" pageWidth="1169" pageHeight="1654" math="0" shadow="0">
      <root>
        <mxCell id="0" />
        <mxCell id="1" parent="0" />
        <mxCell id="-2g4mOtwDmsTuzKeCOdp-3" style="edgeStyle=orthogonalEdgeStyle;rounded=0;orthogonalLoop=1;jettySize=auto;html=1;entryX=0.5;entryY=0;entryDx=0;entryDy=0;" edge="1" parent="1" source="-2g4mOtwDmsTuzKeCOdp-1" target="-2g4mOtwDmsTuzKeCOdp-2">
          <mxGeometry relative="1" as="geometry" />
        </mxCell>
        <mxCell id="-2g4mOtwDmsTuzKeCOdp-1" value="&lt;font color=&quot;#ff3333&quot;&gt;Start&lt;/font&gt;" style="ellipse;whiteSpace=wrap;html=1;" vertex="1" parent="1">
          <mxGeometry x="525" y="30" width="120" height="80" as="geometry" />
        </mxCell>
        <mxCell id="-2g4mOtwDmsTuzKeCOdp-5" style="edgeStyle=orthogonalEdgeStyle;rounded=0;orthogonalLoop=1;jettySize=auto;html=1;entryX=0.5;entryY=0;entryDx=0;entryDy=0;" edge="1" parent="1" source="-2g4mOtwDmsTuzKeCOdp-2" target="-2g4mOtwDmsTuzKeCOdp-4">
          <mxGeometry relative="1" as="geometry" />
        </mxCell>
        <mxCell id="-2g4mOtwDmsTuzKeCOdp-2" value="unsigned int a,b,c;" style="rounded=0;whiteSpace=wrap;html=1;" vertex="1" parent="1">
          <mxGeometry x="525" y="140" width="120" height="50" as="geometry" />
        </mxCell>
        <mxCell id="-2g4mOtwDmsTuzKeCOdp-7" style="edgeStyle=orthogonalEdgeStyle;rounded=0;orthogonalLoop=1;jettySize=auto;html=1;" edge="1" parent="1" source="-2g4mOtwDmsTuzKeCOdp-4" target="-2g4mOtwDmsTuzKeCOdp-6">
          <mxGeometry relative="1" as="geometry" />
        </mxCell>
        <mxCell id="-2g4mOtwDmsTuzKeCOdp-4" value="input a,b,c;" style="shape=parallelogram;perimeter=parallelogramPerimeter;whiteSpace=wrap;html=1;fixedSize=1;" vertex="1" parent="1">
          <mxGeometry x="522.5" y="230" width="125" height="50" as="geometry" />
        </mxCell>
        <mxCell id="-2g4mOtwDmsTuzKeCOdp-10" style="edgeStyle=orthogonalEdgeStyle;rounded=0;orthogonalLoop=1;jettySize=auto;html=1;entryX=0.5;entryY=0;entryDx=0;entryDy=0;" edge="1" parent="1" source="-2g4mOtwDmsTuzKeCOdp-6" target="-2g4mOtwDmsTuzKeCOdp-8">
          <mxGeometry relative="1" as="geometry" />
        </mxCell>
        <mxCell id="-2g4mOtwDmsTuzKeCOdp-11" value="true" style="edgeLabel;html=1;align=center;verticalAlign=middle;resizable=0;points=[];" vertex="1" connectable="0" parent="-2g4mOtwDmsTuzKeCOdp-10">
          <mxGeometry x="-0.2963" y="-1" relative="1" as="geometry">
            <mxPoint as="offset" />
          </mxGeometry>
        </mxCell>
        <mxCell id="-2g4mOtwDmsTuzKeCOdp-12" style="edgeStyle=orthogonalEdgeStyle;rounded=0;orthogonalLoop=1;jettySize=auto;html=1;" edge="1" parent="1" source="-2g4mOtwDmsTuzKeCOdp-6" target="-2g4mOtwDmsTuzKeCOdp-9">
          <mxGeometry relative="1" as="geometry">
            <Array as="points">
              <mxPoint x="690" y="355" />
            </Array>
          </mxGeometry>
        </mxCell>
        <mxCell id="-2g4mOtwDmsTuzKeCOdp-15" value="false" style="edgeLabel;html=1;align=center;verticalAlign=middle;resizable=0;points=[];" vertex="1" connectable="0" parent="-2g4mOtwDmsTuzKeCOdp-12">
          <mxGeometry x="-0.4039" y="2" relative="1" as="geometry">
            <mxPoint as="offset" />
          </mxGeometry>
        </mxCell>
        <mxCell id="-2g4mOtwDmsTuzKeCOdp-6" value="a+b&amp;gt;c?" style="rhombus;whiteSpace=wrap;html=1;" vertex="1" parent="1">
          <mxGeometry x="530" y="320" width="110" height="70" as="geometry" />
        </mxCell>
        <mxCell id="-2g4mOtwDmsTuzKeCOdp-8" value="YES" style="shape=parallelogram;perimeter=parallelogramPerimeter;whiteSpace=wrap;html=1;fixedSize=1;" vertex="1" parent="1">
          <mxGeometry x="425" y="390" width="100" height="40" as="geometry" />
        </mxCell>
        <mxCell id="-2g4mOtwDmsTuzKeCOdp-9" value="NO" style="shape=parallelogram;perimeter=parallelogramPerimeter;whiteSpace=wrap;html=1;fixedSize=1;" vertex="1" parent="1">
          <mxGeometry x="640" y="390" width="100" height="40" as="geometry" />
        </mxCell>
      </root>
    </mxGraphModel>
  </diagram>
</mxfile>
